<svg width="16" height="13" viewBox="0 0 16 13" fill="none" xmlns="http://www.w3.org/2000/svg">
<path fill-rule="evenodd" clip-rule="evenodd" d="M1.7424 0.792969H13.9376C14.3997 0.792969 14.8429 0.982875 15.1697 1.3209C15.4964 1.65894 15.68 2.11741 15.68 2.59545V10.7058C15.68 11.1838 15.4964 11.6423 15.1697 11.9804C14.8429 12.3183 14.3997 12.5083 13.9376 12.5083H1.7424C1.28029 12.5083 0.837104 12.3183 0.510336 11.9804C0.183576 11.6423 0 11.1838 0 10.7058V2.59545C0 2.11741 0.183576 1.65894 0.510336 1.3209C0.837104 0.982875 1.28029 0.792969 1.7424 0.792969ZM13.1928 2.44814L7.84 5.42745L2.4872 2.44814C2.3353 2.37027 2.16009 2.35651 1.99856 2.40976C1.83704 2.463 1.70183 2.5791 1.62148 2.73353C1.54113 2.88795 1.52193 3.06863 1.56792 3.23743C1.61392 3.40624 1.72151 3.54991 1.868 3.63821L7.5304 6.79214C7.6256 6.84511 7.73192 6.87283 7.84 6.87283C7.94808 6.87283 8.0544 6.84511 8.1496 6.79214L13.812 3.63821C13.8906 3.59791 13.9605 3.54171 14.0176 3.47294C14.0748 3.40409 14.1179 3.32406 14.1446 3.23766C14.1712 3.15123 14.1807 3.06014 14.1726 2.96982C14.1645 2.8795 14.1389 2.79179 14.0974 2.71191C14.0558 2.63204 13.9991 2.56163 13.9307 2.50488C13.8623 2.44813 13.7835 2.40621 13.6991 2.3816C13.6147 2.35698 13.5264 2.35019 13.4394 2.36163C13.3525 2.37305 13.2686 2.40248 13.1928 2.44814Z" style="fill:white" fill="white"/>
</svg>
