<?xml version="1.0" encoding="UTF-8"?>
<svg id="Layer_2" data-name="Layer 2" xmlns="http://www.w3.org/2000/svg" xmlns:xlink="http://www.w3.org/1999/xlink" viewBox="0 0 47.66 47.66">
  <defs>
    <style>
      .cls-1 {
        fill: url(#Degradado_sin_nombre_3);
      }

      .cls-1, .cls-2 {
        stroke-width: 0px;
      }

      .cls-2 {
        fill: #fff;
      }
    </style>
    <linearGradient id="Degradado_sin_nombre_3" data-name="Degradado sin nombre 3" x1="3.51" y1="3.51" x2="44.15" y2="44.15" gradientUnits="userSpaceOnUse">
      <stop offset="0" stop-color="#ffe185"/>
      <stop offset=".21" stop-color="#ffbb36"/>
      <stop offset=".38" stop-color="#ff5176"/>
      <stop offset=".52" stop-color="#f63395"/>
      <stop offset=".74" stop-color="#a436d2"/>
      <stop offset="1" stop-color="#5f4eed"/>
    </linearGradient>
  </defs>
  <g id="ELEMENTS">
    <g>
      <rect class="cls-1" width="47.66" height="47.66" rx="12" ry="12"/>
      <g>
        <path class="cls-2" d="M30.93,15.22c-.87,0-1.57.7-1.57,1.57s.7,1.57,1.57,1.57,1.57-.7,1.57-1.57-.7-1.57-1.57-1.57Z"/>
        <path class="cls-2" d="M23.94,17.23c-3.64,0-6.6,2.96-6.6,6.6s2.96,6.6,6.6,6.6,6.6-2.96,6.6-6.6-2.96-6.6-6.6-6.6ZM23.94,28.06c-2.33,0-4.23-1.9-4.23-4.23s1.9-4.23,4.23-4.23,4.23,1.9,4.23,4.23-1.9,4.23-4.23,4.23Z"/>
        <path class="cls-2" d="M29.18,37.23h-10.7c-4.44,0-8.05-3.61-8.05-8.05v-10.7c0-4.44,3.61-8.05,8.05-8.05h10.7c4.44,0,8.05,3.61,8.05,8.05v10.7c0,4.44-3.61,8.05-8.05,8.05ZM18.48,12.95c-3.05,0-5.53,2.48-5.53,5.53v10.7c0,3.05,2.48,5.53,5.53,5.53h10.7c3.05,0,5.53-2.48,5.53-5.53v-10.7c0-3.05-2.48-5.53-5.53-5.53h-10.7Z"/>
      </g>
    </g>
  </g>
</svg>