<svg width="16" height="16" viewBox="0 0 16 16" fill="none" xmlns="http://www.w3.org/2000/svg">
<path d="M7.27032 7.27C6.8671 7.67323 6.8671 8.32677 7.27032 8.72968C7.67323 9.1329 8.3271 9.1329 8.73 8.72968C9.13323 8.32645 9.13323 7.6729 8.73 7.27C8.32677 6.8671 7.67323 6.8671 7.27032 7.27ZM8 0C3.58161 0 0 3.58161 0 8C0 12.4184 3.58161 16 8 16C12.4184 16 16 12.4184 16 8C16 3.58161 12.4184 0 8 0ZM12.069 4.77581L9.94097 9.43226C9.83804 9.65745 9.65745 9.83804 9.43226 9.94097L4.77613 12.069C4.23903 12.3145 3.68548 11.761 3.93097 11.2239L6.05935 6.56742C6.16229 6.34223 6.34288 6.16164 6.56806 6.05871L11.2242 3.93065C11.7613 3.68548 12.3145 4.23871 12.069 4.77581Z" style="fill:white" fill="white"/>
</svg>
