<svg width="12" height="20" viewBox="0 0 12 20" fill="none" xmlns="http://www.w3.org/2000/svg">
<path d="M2.55161 1.79826C2.26521 1.79826 1.99047 1.91205 1.78793 2.11459C1.5854 2.31713 1.4716 2.59183 1.4716 2.87826V17.1415C1.4716 17.4279 1.5854 17.7026 1.78793 17.9051C1.99047 18.1077 2.26521 18.2215 2.55161 18.2215H9.46601C9.75241 18.2215 10.0271 18.1077 10.2297 17.9051C10.4323 17.7026 10.546 17.4279 10.546 17.1415V2.87826C10.546 2.59183 10.4323 2.31713 10.2297 2.11459C10.0271 1.91205 9.75241 1.79826 9.46601 1.79826H2.55161ZM2.55161 0.501465H9.46601C10.0964 0.501465 10.7009 0.751881 11.1467 1.19762C11.5924 1.64335 11.8428 2.2479 11.8428 2.87826V17.1415C11.8428 17.7718 11.5924 18.3764 11.1467 18.8221C10.7009 19.2678 10.0964 19.5183 9.46601 19.5183H2.55161C1.92124 19.5183 1.31669 19.2678 0.870957 18.8221C0.425221 18.3764 0.174805 17.7718 0.174805 17.1415V2.87826C0.174805 2.2479 0.425221 1.64335 0.870957 1.19762C1.31669 0.751881 1.92124 0.501465 2.55161 0.501465ZM3.84841 1.14946H8.16841C8.28297 1.14946 8.39289 1.19498 8.47385 1.276C8.55489 1.35702 8.60041 1.4669 8.60041 1.58147V2.44546C8.60041 2.56004 8.55489 2.66992 8.47385 2.75094C8.39289 2.83195 8.28297 2.87747 8.16841 2.87747H3.84841C3.73385 2.87747 3.62393 2.83195 3.54297 2.75094C3.46193 2.66992 3.41641 2.56004 3.41641 2.44546V1.58147C3.41641 1.4669 3.46193 1.35702 3.54297 1.276C3.62393 1.19498 3.73385 1.14946 3.84841 1.14946Z" fill="black"/>
</svg>
