<svg width="54" height="54" viewBox="0 0 54 54" fill="none" xmlns="http://www.w3.org/2000/svg"><circle opacity=".3" cx="27" cy="27" r="27" fill="#000"></circle><path d="M24.728 35.784c-.235.156-.495.23-.758.214a1.286 1.286 0 0 1-.74-.305 1.922 1.922 0 0 1-.535-.747 2.608 2.608 0 0 1-.195-1V20.054c0-.35.067-.694.195-1 .128-.305.312-.563.535-.747.223-.184.478-.289.74-.305.263-.016.523.058.758.214l10.42 6.948c.256.17.471.432.622.757.15.324.23.698.23 1.079s-.08.755-.23 1.08c-.15.324-.366.586-.622.756l-10.42 6.948z" fill="#fff" stroke="#fff" stroke-width="1.875" stroke-linecap="round" stroke-linejoin="round"></path></svg>