<svg width="17" height="16" viewBox="0 0 17 16" fill="none" xmlns="http://www.w3.org/2000/svg">
<path d="M16.1853 11.7021C16.0715 11.3941 15.8573 11.2301 15.6129 11.0929C15.5661 11.0661 15.5259 11.0427 15.4891 11.0293C15.4155 10.9925 15.3418 10.9556 15.2682 10.9155C14.505 10.5105 13.9092 10.0017 13.4941 9.39582C13.3766 9.22569 13.2747 9.04532 13.1895 8.8569C13.1527 8.75648 13.156 8.69958 13.1828 8.64602C13.2079 8.60622 13.241 8.57203 13.2799 8.54561C13.4104 8.45858 13.5477 8.37155 13.638 8.3113C13.8021 8.20418 13.9326 8.1205 14.0129 8.0636C14.3276 7.84602 14.5452 7.61172 14.6824 7.35063C14.778 7.17078 14.8337 6.97247 14.8458 6.76916C14.858 6.56586 14.8262 6.36232 14.7527 6.17238C14.5452 5.62678 14.0297 5.2887 13.4037 5.2887C13.2721 5.28818 13.1409 5.30165 13.0121 5.32887C12.9786 5.33556 12.9418 5.34561 12.9083 5.3523C12.915 4.97741 12.905 4.58577 12.8715 4.19749C12.7544 2.8318 12.2757 2.11883 11.777 1.54644C11.4594 1.18863 11.0851 0.885557 10.669 0.649372C9.91252 0.217573 9.05562 0 8.12173 0C7.18783 0 6.33428 0.217573 5.57779 0.649372C5.15919 0.884692 4.78253 1.18783 4.46315 1.54644C3.9644 2.11548 3.48574 2.8318 3.36859 4.19749C3.33511 4.58577 3.32842 4.98075 3.33177 5.3523C3.29829 5.34226 3.26482 5.33556 3.228 5.32887C3.09925 5.30165 2.96797 5.28818 2.83637 5.2887C2.21043 5.2887 1.69495 5.62678 1.48742 6.17238C1.4134 6.36208 1.38106 6.56549 1.39261 6.76879C1.40417 6.9721 1.45933 7.17053 1.55436 7.35063C1.6916 7.61172 1.91252 7.84268 2.22382 8.0636C2.3075 8.1205 2.43804 8.20418 2.59871 8.3113C2.68574 8.3682 2.81629 8.45188 2.94348 8.53556C2.98771 8.56414 3.02537 8.60179 3.05394 8.64602C3.08072 8.69958 3.08072 8.75983 3.04055 8.86695C2.95715 9.05173 2.85745 9.22872 2.74265 9.39582C2.33763 9.98829 1.75855 10.487 1.02214 10.8887C0.637207 11.0996 0.228838 11.2402 0.058127 11.7054C-0.072417 12.0569 0.0146123 12.4586 0.342646 12.7967C0.463396 12.9229 0.603509 13.0291 0.757709 13.1113C1.07807 13.287 1.41866 13.423 1.77193 13.5163C1.84458 13.5348 1.9136 13.5654 1.97612 13.6067C2.09662 13.7105 2.07988 13.8711 2.23721 14.1021C2.31775 14.2215 2.41992 14.3248 2.53846 14.4067C2.87319 14.6377 3.25143 14.6544 3.64976 14.6678C4.01127 14.6812 4.41963 14.6979 4.88491 14.8519C5.07905 14.9155 5.27988 15.0393 5.51085 15.1833C6.07319 15.5314 6.83972 16 8.12173 16C9.40374 16 10.1736 15.528 10.736 15.1833C10.9669 15.0427 11.1678 14.9188 11.3552 14.8552C11.8205 14.7013 12.2322 14.6845 12.5903 14.6711C12.9887 14.6544 13.3669 14.641 13.7016 14.41C13.8417 14.3118 13.9583 14.1838 14.0431 14.0351C14.1569 13.841 14.1535 13.7038 14.264 13.6067C14.3234 13.567 14.389 13.5376 14.4581 13.5197C14.8161 13.4262 15.1612 13.289 15.4857 13.1113C15.6493 13.0233 15.7965 12.9078 15.9209 12.7699L15.9242 12.7665C16.2355 12.4351 16.3125 12.0469 16.1853 11.7021ZM15.0472 12.3146C14.3544 12.6996 13.8924 12.6561 13.5309 12.887C13.2263 13.0845 13.4071 13.5063 13.1862 13.6603C12.915 13.8477 12.1083 13.6469 11.0707 13.9916C10.2138 14.2762 9.66482 15.0895 8.12507 15.0895C6.58532 15.0895 6.04976 14.2761 5.17612 13.9883C4.13846 13.6435 3.33177 13.8477 3.06064 13.6569C2.83972 13.5029 3.02047 13.0812 2.71587 12.8837C2.35771 12.6527 1.89578 12.6929 1.19955 12.3113C0.757709 12.0669 1.00875 11.9163 1.15604 11.846C3.66984 10.6276 4.07152 8.74644 4.0916 8.60921C4.11168 8.44184 4.13846 8.30795 3.95101 8.13724C3.77026 7.96987 2.97361 7.47782 2.75269 7.32385C2.38783 7.06946 2.22716 6.81172 2.34432 6.50042C2.428 6.28285 2.62884 6.20251 2.84306 6.20251C2.91067 6.20295 2.97801 6.21081 3.0439 6.22594C3.44557 6.31297 3.83721 6.51381 4.06147 6.56736C4.08888 6.57399 4.11696 6.57736 4.14516 6.57741C4.26566 6.57741 4.30917 6.51715 4.29913 6.37992C4.27235 5.94142 4.2121 5.08452 4.27905 4.28452C4.37277 3.18326 4.72758 2.63766 5.14934 2.15565C5.35353 1.92469 6.30415 0.917155 8.12507 0.917155C9.94599 0.917155 10.9 1.91799 11.1008 2.14895C11.5226 2.63096 11.8774 3.17657 11.9711 4.27782C12.0414 5.07782 11.9811 5.93473 11.951 6.37322C11.941 6.51715 11.9845 6.57071 12.105 6.57071C12.1332 6.5707 12.1613 6.56733 12.1887 6.56067C12.4129 6.50711 12.8046 6.30628 13.2062 6.21925C13.2721 6.20411 13.3395 6.19625 13.4071 6.19582C13.6213 6.19582 13.8221 6.2795 13.9058 6.49372C14.023 6.80837 13.8657 7.06276 13.4975 7.31715C13.2765 7.47113 12.4799 7.96318 12.2991 8.13054C12.1117 8.30126 12.1385 8.43515 12.1585 8.60251C12.1753 8.7431 12.577 10.6243 15.0941 11.8393C15.238 11.9163 15.4891 12.0669 15.0472 12.3146Z" fill="white"/>
</svg>
