<svg width="14" height="16" viewBox="0 0 14 16" fill="none" xmlns="http://www.w3.org/2000/svg">
<path d="M14.0014 6.56002C12.625 6.56297 11.2824 6.13331 10.1635 5.33177V10.9198C10.1632 11.9548 9.84688 12.9649 9.25689 13.8152C8.6669 14.6655 7.83136 15.3154 6.86201 15.678C5.89266 16.0405 4.83572 16.0985 3.83254 15.8441C2.82937 15.5897 1.92778 15.035 1.24837 14.2543C0.568956 13.4736 0.144106 12.5041 0.0306388 11.4754C-0.0828284 10.4467 0.120497 9.40789 0.613423 8.49788C1.10635 7.58787 1.86537 6.85006 2.78898 6.38312C3.71259 5.91618 4.75676 5.74238 5.78182 5.88495V8.6946C5.31311 8.54706 4.80976 8.55137 4.34365 8.70694C3.87753 8.8625 3.47249 9.16136 3.18634 9.56085C2.9002 9.96033 2.74759 10.44 2.75031 10.9314C2.75303 11.4228 2.91093 11.9007 3.20147 12.297C3.49201 12.6933 3.90034 12.9877 4.36814 13.1381C4.83595 13.2885 5.33931 13.2872 5.80637 13.1345C6.27342 12.9818 6.68028 12.6854 6.96885 12.2877C7.25742 11.8899 7.41295 11.4112 7.41323 10.9198V0H10.1635C10.162 0.232605 10.1818 0.464859 10.2229 0.693818C10.3185 1.20418 10.5172 1.68968 10.8069 2.12064C11.0965 2.55161 11.471 2.91898 11.9074 3.20031C12.5287 3.61062 13.2569 3.82908 14.0014 3.8285V6.56002Z" fill="white"/>
</svg>
