<svg width="24" height="24" viewBox="0 0 24 24" fill="none" xmlns="http://www.w3.org/2000/svg">
<g clip-path="url(#clip0_1071_2)">
<path d="M24 21.6C24 22.9254 22.9254 24 21.6 24H2.4C1.07442 24 0 22.9254 0 21.6V2.4C0 1.07461 1.07442 0 2.4 0H21.6C22.9254 0 24 1.07461 24 2.4V21.6Z" style="fill:#17B7EA" fill="#17B7EA"/>
<path style="fill:white" d="M20.1948 7.97014C20.1176 9.65815 18.9386 11.9696 16.6576 14.9036C14.2996 17.9675 12.3044 19.4999 10.6728 19.4999C9.66159 19.4999 8.80598 18.5674 8.10717 16.7007C7.64058 14.9898 7.17441 13.279 6.70739 11.5679C6.18839 9.70254 5.6318 8.76856 5.03639 8.76856C4.90659 8.76856 4.45261 9.04156 3.67519 9.58535L2.85938 8.53456C3.71541 7.78254 4.55958 7.03076 5.3902 6.27753C6.5318 5.29156 7.38938 4.77274 7.96059 4.72034C9.30998 4.59054 10.1408 5.51314 10.4526 7.48775C10.7896 9.61835 11.023 10.9436 11.1538 11.4619C11.5434 13.2299 11.9716 14.113 12.4388 14.113C12.8014 14.113 13.347 13.5395 14.0744 12.3923C14.8002 11.2461 15.1892 10.3737 15.2418 9.77412C15.3456 8.78454 14.9562 8.28874 14.0744 8.28874C13.659 8.28874 13.2308 8.38414 12.7904 8.57295C13.643 5.78154 15.2716 4.42592 17.675 4.50312C19.4572 4.55553 20.2978 5.71114 20.1948 7.97014Z" style="fill:white" fill="white"/>
</g>
<defs>
<clipPath id="clip0_1071_2">
<rect width="24" height="24" fill="white"/>
</clipPath>
</defs>
</svg>
