<svg width="18" height="16" viewBox="0 0 18 16" fill="none" xmlns="http://www.w3.org/2000/svg">
<path style="fill:black" d="M17.4922 4.00024C17.4141 5.70336 16.2266 8.03539 13.9219 10.9963C11.543 14.0901 9.53125 15.637 7.88281 15.637C6.86328 15.637 6 14.6955 5.29297 12.8127C3.91797 7.76586 3.33203 4.80883 2.19531 4.80883C2.0625 4.80883 1.60547 5.08617 0.820313 5.63305L0 4.57055C2.01563 2.80102 3.94141 0.832269 5.14844 0.722894C6.51172 0.590081 7.34766 1.52367 7.66406 3.51586C8.78516 10.6057 9.28125 11.676 11.3203 8.46508C12.0508 7.30883 12.4453 6.42993 12.5 5.82446C12.6875 4.03149 11.1016 4.15258 10.0273 4.61352C10.8867 1.79711 12.5313 0.429925 14.957 0.50805C16.7461 0.554925 17.5938 1.72289 17.4922 4.00024Z" style="fill:white" fill="white"/>
</svg>
