<svg width="16" height="16" viewBox="0 0 16 16" fill="none" xmlns="http://www.w3.org/2000/svg">
<path style="fill:black" d="M10.8548 4.90323C10.3871 2.02258 9.28387 0 8 0C6.71613 0 5.6129 2.02258 5.14516 4.90323H10.8548ZM4.90323 8C4.90323 8.71613 4.94194 9.40323 5.00968 10.0645H10.9871C11.0548 9.40323 11.0935 8.71613 11.0935 8C11.0935 7.28387 11.0548 6.59677 10.9871 5.93548H5.00968C4.94194 6.59677 4.90323 7.28387 4.90323 8ZM15.3774 4.90323C14.4548 2.7129 12.5871 1.01935 10.2806 0.335484C11.0677 1.42581 11.6097 3.06774 11.8935 4.90323H15.3774ZM5.71613 0.335484C3.4129 1.01935 1.54194 2.7129 0.622581 4.90323H4.10645C4.3871 3.06774 4.92903 1.42581 5.71613 0.335484ZM15.7226 5.93548H12.0226C12.0903 6.6129 12.129 7.30645 12.129 8C12.129 8.69355 12.0903 9.3871 12.0226 10.0645H15.7194C15.8968 9.40323 15.9968 8.71613 15.9968 8C15.9968 7.28387 15.8968 6.59677 15.7226 5.93548ZM3.87097 8C3.87097 7.30645 3.90968 6.6129 3.97742 5.93548H0.277419C0.103226 6.59677 0 7.28387 0 8C0 8.71613 0.103226 9.40323 0.277419 10.0645H3.97419C3.90968 9.3871 3.87097 8.69355 3.87097 8ZM5.14516 11.0968C5.6129 13.9774 6.71613 16 8 16C9.28387 16 10.3871 13.9774 10.8548 11.0968H5.14516ZM10.2839 15.6645C12.5871 14.9806 14.4581 13.2871 15.3806 11.0968H11.8968C11.6129 12.9323 11.071 14.5742 10.2839 15.6645ZM0.622581 11.0968C1.54516 13.2871 3.4129 14.9806 5.71935 15.6645C4.93226 14.5742 4.39032 12.9323 4.10645 11.0968H0.622581Z" style="fill:white" fill="white"/>
</svg>
