<svg width="24" height="24" viewBox="0 0 24 24" fill="none" xmlns="http://www.w3.org/2000/svg">
<g clip-path="url(#clip0_1083_8)">
<path d="M5.448 0C4.92 0.024 4.224 0.072 3.912 0.144C3.432 0.24 2.976 0.384 2.616 0.576C2.16 0.792 1.776 1.08 1.44 1.416C1.08 1.776 0.792 2.16 0.576 2.616C0.384 2.976 0.24 3.432 0.144 3.912C0.072 4.224 0.024 4.92 0.024 5.448C0 5.664 0 5.952 0 6.096V17.904V18.552C0.024 19.08 0.072 19.776 0.144 20.088C0.24 20.568 0.384 21.024 0.576 21.384C0.792 21.84 1.08 22.224 1.416 22.56C1.776 22.92 2.16 23.208 2.616 23.424C2.976 23.616 3.432 23.76 3.912 23.856C4.224 23.928 4.92 23.976 5.448 23.976C5.664 24 5.952 24 6.096 24H17.904H18.552C19.08 23.976 19.776 23.928 20.088 23.856C20.568 23.76 21.024 23.616 21.384 23.424C21.84 23.208 22.224 22.92 22.56 22.584C22.92 22.224 23.208 21.84 23.424 21.384C23.616 21.024 23.76 20.568 23.856 20.088C23.928 19.776 23.976 19.08 23.976 18.552C24 18.336 24 18.048 24 17.904V5.448C23.976 4.92 23.928 4.224 23.856 3.912C23.76 3.432 23.616 2.976 23.424 2.616C23.208 2.16 22.92 1.776 22.584 1.44C22.224 1.08 21.84 0.792 21.384 0.576C21.024 0.384 20.568 0.24 20.088 0.144C19.776 0.072 19.08 0.024 18.552 0.024C18.336 -2.79397e-09 18.048 0 17.904 0H5.448Z" style="fill:url(#paint0_linear_1083_8)" fill="url(#paint0_linear_1083_8)"/>
<path style="fill:white" d="M14.8548 8.90323C14.3871 6.02258 13.2839 4 12 4C10.7161 4 9.6129 6.02258 9.14516 8.90323H14.8548ZM8.90323 12C8.90323 12.7161 8.94194 13.4032 9.00968 14.0645H14.9871C15.0548 13.4032 15.0935 12.7161 15.0935 12C15.0935 11.2839 15.0548 10.5968 14.9871 9.93548H9.00968C8.94194 10.5968 8.90323 11.2839 8.90323 12ZM19.3774 8.90323C18.4548 6.7129 16.5871 5.01935 14.2806 4.33548C15.0677 5.42581 15.6097 7.06774 15.8935 8.90323H19.3774ZM9.71613 4.33548C7.4129 5.01935 5.54194 6.7129 4.62258 8.90323H8.10645C8.3871 7.06774 8.92903 5.42581 9.71613 4.33548ZM19.7226 9.93548H16.0226C16.0903 10.6129 16.129 11.3065 16.129 12C16.129 12.6935 16.0903 13.3871 16.0226 14.0645H19.7194C19.8968 13.4032 19.9968 12.7161 19.9968 12C19.9968 11.2839 19.8968 10.5968 19.7226 9.93548ZM7.87097 12C7.87097 11.3065 7.90968 10.6129 7.97742 9.93548H4.27742C4.10323 10.5968 4 11.2839 4 12C4 12.7161 4.10323 13.4032 4.27742 14.0645H7.97419C7.90968 13.3871 7.87097 12.6935 7.87097 12ZM9.14516 15.0968C9.6129 17.9774 10.7161 20 12 20C13.2839 20 14.3871 17.9774 14.8548 15.0968H9.14516ZM14.2839 19.6645C16.5871 18.9806 18.4581 17.2871 19.3806 15.0968H15.8968C15.6129 16.9323 15.071 18.5742 14.2839 19.6645ZM4.62258 15.0968C5.54516 17.2871 7.4129 18.9806 9.71935 19.6645C8.93226 18.5742 8.39032 16.9323 8.10645 15.0968H4.62258Z" style="fill:white" fill="white"/>
</g>
<defs>
<linearGradient id="paint0_linear_1083_8" x1="1.92" y1="3.07201" x2="24" y2="27.048" gradientUnits="userSpaceOnUse">
<stop stop-color="#C389FF"/>
<stop offset="1" stop-color="#4488FF"/>
</linearGradient>
<clipPath id="clip0_1083_8">
<rect width="24" height="24" fill="white"/>
</clipPath>
</defs>
</svg>
