<svg width="24" height="24" viewBox="0 0 24 24" fill="none" xmlns="http://www.w3.org/2000/svg">
<g clip-path="url(#clip0_1117_13)">
<path d="M5.448 0C4.92 0.024 4.224 0.072 3.912 0.144C3.432 0.24 2.976 0.384 2.616 0.576C2.16 0.792 1.776 1.08 1.44 1.416C1.08 1.776 0.792 2.16 0.576 2.616C0.384 2.976 0.24 3.432 0.144 3.912C0.072 4.224 0.024 4.92 0.024 5.448C0 5.664 0 5.952 0 6.096V17.904V18.552C0.024 19.08 0.072 19.776 0.144 20.088C0.24 20.568 0.384 21.024 0.576 21.384C0.792 21.84 1.08 22.224 1.416 22.56C1.776 22.92 2.16 23.208 2.616 23.424C2.976 23.616 3.432 23.76 3.912 23.856C4.224 23.928 4.92 23.976 5.448 23.976C5.664 24 5.952 24 6.096 24H17.904H18.552C19.08 23.976 19.776 23.928 20.088 23.856C20.568 23.76 21.024 23.616 21.384 23.424C21.84 23.208 22.224 22.92 22.56 22.584C22.92 22.224 23.208 21.84 23.424 21.384C23.616 21.024 23.76 20.568 23.856 20.088C23.928 19.776 23.976 19.08 23.976 18.552C24 18.336 24 18.048 24 17.904V5.448C23.976 4.92 23.928 4.224 23.856 3.912C23.76 3.432 23.616 2.976 23.424 2.616C23.208 2.16 22.92 1.776 22.584 1.44C22.224 1.08 21.84 0.792 21.384 0.576C21.024 0.384 20.568 0.24 20.088 0.144C19.776 0.072 19.08 0.024 18.552 0.024C18.336 -1.86265e-09 18.048 0 17.904 0H5.448Z" style="fill:#00D332" fill="#00D332"/>
<path style="fill:white" d="M15.5056 9.10383C13.8347 9.19111 12.3818 9.69766 11.2022 10.842C10.0103 11.9982 9.46628 13.4149 9.615 15.1711C8.96192 15.0902 8.36707 15.0012 7.76882 14.9508C7.56222 14.9335 7.31702 14.9582 7.14203 15.0569C6.56114 15.3847 6.00422 15.7548 5.34417 16.1674C5.46529 15.6196 5.54369 15.1399 5.68246 14.6785C5.78454 14.3394 5.73724 14.1507 5.42487 13.9299C3.41909 12.5137 2.57363 10.3944 3.20635 8.21258C3.79173 6.19412 5.2293 4.96999 7.18263 4.33187C9.84876 3.46101 12.845 4.34934 14.4662 6.46607C15.0517 7.23069 15.4107 8.08886 15.5056 9.10383ZM7.81564 8.42397C7.83103 8.02491 7.48525 7.66539 7.07449 7.65336C6.65397 7.64101 6.30808 7.96237 6.2958 8.37675C6.28338 8.79672 6.60459 9.13329 7.02818 9.14403C7.44812 9.15471 7.80011 8.8329 7.81564 8.42397ZM11.8278 7.65311C11.4156 7.66071 11.0672 8.01182 11.0745 8.41246C11.0821 8.82775 11.4238 9.15262 11.8477 9.14754C12.2727 9.14243 12.5951 8.81408 12.591 8.39005C12.5875 7.97378 12.2473 7.64543 11.8278 7.65311Z" style="fill:white" fill="white"/>
<path style="fill:white" d="M19.2599 19.5205C18.7308 19.2849 18.2454 18.9315 17.7287 18.8775C17.214 18.8237 16.6729 19.1207 16.1344 19.1758C14.494 19.3436 13.0244 18.8864 11.8126 17.7658C9.50796 15.6341 9.8373 12.3657 12.5037 10.6188C14.8735 9.06624 18.3489 9.58383 20.0197 11.738C21.4778 13.6178 21.3064 16.1131 19.5264 17.6923C19.0113 18.1493 18.826 18.5254 19.1565 19.1279C19.2175 19.2392 19.2244 19.38 19.2599 19.5205ZM13.2373 13.6894C13.5741 13.6898 13.8515 13.4262 13.8642 13.0935C13.8777 12.7413 13.5944 12.4458 13.2417 12.4444C12.8925 12.4428 12.6 12.7424 12.6121 13.0893C12.6236 13.4209 12.9029 13.689 13.2373 13.6894ZM17.1197 12.4458C16.7929 12.4435 16.5152 12.711 16.5019 13.0412C16.4877 13.3944 16.7622 13.6843 17.1116 13.6852C17.4496 13.6863 17.7167 13.4307 17.729 13.0944C17.7421 12.7405 17.4675 12.4482 17.1197 12.4458Z" style="fill:white" fill="white"/>
</g>
<defs>
<clipPath id="clip0_1117_13">
<rect width="24" height="24" fill="white"/>
</clipPath>
</defs>
</svg>
