<!-- <svg width="24" height="24" viewBox="0 0 24 24" fill="none" xmlns="http://www.w3.org/2000/svg">
<rect width="24" height="24" fill="white"/>
<path d="M16.2091 8.70889C14.2739 8.80997 12.5912 9.39664 11.225 10.722C9.84465 12.061 9.21456 13.7018 9.38679 15.7358C8.63043 15.6421 7.9415 15.539 7.24863 15.4807C7.00935 15.4605 6.72537 15.4891 6.52271 15.6035C5.84995 15.9831 5.20495 16.4117 4.44051 16.8896C4.58078 16.2552 4.67158 15.6996 4.83229 15.1653C4.95052 14.7726 4.89574 14.554 4.53397 14.2982C2.21096 12.6581 1.23179 10.2036 1.96457 7.67668C2.64254 5.33899 4.30747 3.92125 6.56973 3.1822C9.65752 2.17361 13.1276 3.20244 15.0052 5.65395C15.6833 6.5395 16.0992 7.5334 16.2091 8.70889ZM7.30286 7.92151C7.32068 7.45933 6.92021 7.04295 6.44449 7.02902C5.95746 7.01471 5.55687 7.3869 5.54264 7.86682C5.52825 8.35321 5.90027 8.74301 6.39086 8.75545C6.8772 8.76781 7.28487 8.39511 7.30286 7.92151ZM11.9496 7.02872C11.4721 7.03753 11.0687 7.44417 11.0772 7.90817C11.0859 8.38915 11.4816 8.7654 11.9726 8.75952C12.4648 8.75359 12.8382 8.37332 12.8335 7.88223C12.8294 7.40011 12.4354 7.01983 11.9496 7.02872Z" fill="black"/>
<path d="M20.5569 20.773C19.9442 20.5001 19.3821 20.0908 18.7837 20.0283C18.1875 19.966 17.5608 20.3099 16.9371 20.3737C15.0373 20.5681 13.3353 20.0386 11.9319 18.7407C9.26272 16.2719 9.64414 12.4865 12.7322 10.4634C15.4768 8.66529 19.5019 9.26474 21.4369 11.7596C23.1256 13.9367 22.9271 16.8267 20.8656 18.6556C20.2691 19.1849 20.0544 19.6205 20.4372 20.3183C20.5078 20.4471 20.5159 20.6103 20.5569 20.773ZM13.5819 14.0197C13.972 14.02 14.2932 13.7148 14.308 13.3295C14.3235 12.9215 13.9955 12.5794 13.587 12.5777C13.1826 12.5759 12.8438 12.9228 12.8579 13.3247C12.8711 13.7086 13.1946 14.0192 13.5819 14.0197ZM18.0783 12.5793C17.6998 12.5767 17.3782 12.8865 17.3628 13.269C17.3464 13.678 17.6642 14.0138 18.069 14.0148C18.4604 14.0161 18.7697 13.72 18.7839 13.3305C18.7991 12.9206 18.4811 12.5821 18.0783 12.5793Z" fill="black"/>
</svg> -->
<svg width="24" height="24" xmlns="http://www.w3.org/2000/svg" fill-rule="evenodd" clip-rule="evenodd"><path d="M21.502 19.525c1.524-1.105 2.498-2.738 2.498-4.554 0-3.326-3.237-6.023-7.229-6.023s-7.229 2.697-7.229 6.023c0 3.327 3.237 6.024 7.229 6.024.825 0 1.621-.117 2.36-.33l.212-.032c.139 0 .265.043.384.111l1.583.914.139.045c.133 0 .241-.108.241-.241l-.039-.176-.326-1.215-.025-.154c0-.162.08-.305.202-.392zm-12.827-17.228c-4.791 0-8.675 3.236-8.675 7.229 0 2.178 1.168 4.139 2.997 5.464.147.104.243.276.243.471l-.03.184-.391 1.458-.047.211c0 .16.13.29.289.29l.168-.054 1.899-1.097c.142-.082.293-.133.46-.133l.255.038c.886.255 1.842.397 2.832.397l.476-.012c-.188-.564-.291-1.158-.291-1.771 0-3.641 3.542-6.593 7.911-6.593l.471.012c-.653-3.453-4.24-6.094-8.567-6.094zm5.686 11.711c-.532 0-.963-.432-.963-.964 0-.533.431-.964.963-.964.533 0 .964.431.964.964 0 .532-.431.964-.964.964zm4.82 0c-.533 0-.964-.432-.964-.964 0-.533.431-.964.964-.964.532 0 .963.431.963.964 0 .532-.431.964-.963.964zm-13.398-5.639c-.639 0-1.156-.518-1.156-1.156 0-.639.517-1.157 1.156-1.157.639 0 1.157.518 1.157 1.157 0 .638-.518 1.156-1.157 1.156zm5.783 0c-.639 0-1.156-.518-1.156-1.156 0-.639.517-1.157 1.156-1.157.639 0 1.157.518 1.157 1.157 0 .638-.518 1.156-1.157 1.156z"/></svg>
