<svg width="16" height="12" viewBox="0 0 16 12" fill="none" xmlns="http://www.w3.org/2000/svg">
<path style="fill:white" d="M15.6661 1.76053C15.4815 1.06628 14.9396 0.521421 14.2512 0.336873C13.0033 0 8 0 8 0C8 0 2.9967 0 1.74881 0.336873C1.06042 0.521421 0.518491 1.06628 0.333944 1.76053C0 3.01721 0 5.63603 0 5.63603C0 5.63603 0 8.25485 0.333944 9.51153C0.518491 10.2058 1.06042 10.7272 1.74881 10.9118C2.9967 11.2486 8 11.2486 8 11.2486C8 11.2486 13.0033 11.2486 14.2512 10.9118C14.9396 10.7272 15.4815 10.2029 15.6661 9.51153C16 8.25485 16 5.63603 16 5.63603C16 5.63603 16 3.01721 15.6661 1.76053ZM6.36543 8.01465V3.25741L10.5456 5.63603L6.36543 8.01465Z" style="fill:white" fill="white"/>
</svg>
