<?xml version="1.0" encoding="UTF-8"?>
<svg id="Layer_2" data-name="Layer 2" xmlns="http://www.w3.org/2000/svg" xmlns:xlink="http://www.w3.org/1999/xlink" viewBox="0 0 47.66 47.66">
  <defs>
    <style>
      .cls-1 {
        fill: url(#Degradado_sin_nombre_7);
      }

      .cls-1, .cls-2 {
        stroke-width: 0px;
      }

      .cls-2 {
        fill: #fff;
      }
    </style>
    <linearGradient id="Degradado_sin_nombre_7" data-name="Degradado sin nombre 7" x1="3.51" y1="3.51" x2="44.15" y2="44.15" gradientUnits="userSpaceOnUse">
      <stop offset="0" stop-color="red"/>
      <stop offset="1" stop-color="#9b0000"/>
    </linearGradient>
  </defs>
  <g id="ELEMENTS">
    <g>
      <rect class="cls-1" style="fill:url(#Degradado_sin_nombre_7)" width="47.66" height="47.66" rx="12" ry="12"/>
      <path class="cls-2" style="fill:#fff" d="M35.41,20.73c0-2.81-2.27-5.08-5.08-5.08h-12.99c-2.81,0-5.08,2.27-5.08,5.08v6.04c0,2.81,2.27,5.08,5.08,5.08h12.99c2.81,0,5.08-2.27,5.08-5.08v-6.04ZM27.77,24.21l-5.82,2.88c-.23.12-1-.04-1-.3v-5.92c0-.26.78-.43,1.01-.3l5.58,3.03c.23.13.48.47.24.6Z"/>
    </g>
  </g>
</svg>