<svg xmlns="http://www.w3.org/2000/svg" stroke="white" xml:space="preserve" viewBox="0 0 24 24" id="google-play">
  <path d="M3.713 23.015c-.34 0-.679-.091-.986-.273a1.92 1.92 0 0 1-.949-1.666V2.924c0-.691.355-1.314.949-1.666a1.92 1.92 0 0 1 1.917-.032l16.573 9.076c.63.345 1.006.98 1.006 1.698s-.376 1.354-1.006 1.698L4.644 22.774c-.294.16-.613.241-.931.241zm0-21.028a.93.93 0 0 0-.477.132.926.926 0 0 0-.459.805v18.151a.935.935 0 0 0 1.386.822l16.573-9.076c.305-.167.487-.474.487-.821s-.182-.654-.487-.821L4.163 2.103a.928.928 0 0 0-.45-.116z"></path>
  <path d="M16.777 15.5a.496.496 0 0 1-.347-.14l-13.5-13a.5.5 0 1 1 .694-.721l13.5 13a.5.5 0 0 1-.347.861z"></path>
  <path d="M3.277 22.5a.5.5 0 0 1-.346-.86l13.5-13a.5.5 0 0 1 .693.721l-13.5 13a.5.5 0 0 1-.347.139z"></path>
</svg>
