<svg width="684" height="485" viewBox="0 0 684 485" fill="none" xmlns="http://www.w3.org/2000/svg">
<path d="M80.4966 364.414C108.288 364.414 118.789 374.383 118.789 400.93V422.373C118.789 445.597 110.633 456.119 90.025 458.464L106.353 481.703C107.039 482.661 107.039 484.745 104.97 484.745H90.7264C90.0842 484.835 89.4296 484.738 88.841 484.466C88.2525 484.193 87.7551 483.757 87.4086 483.208L70.953 458.868H38.3078C10.5165 458.868 0 448.915 0 422.368V400.925C0 374.378 10.5165 364.409 38.3078 364.409L80.4966 364.414ZM17.152 421.123C17.152 437.866 22.4051 443.252 38.8557 443.252H79.8157C96.4045 443.252 101.519 437.866 101.519 421.123V402.179C101.519 385.452 96.3994 380.163 79.8157 380.163H38.8557C22.4051 380.163 17.152 385.427 17.152 402.179V421.123Z" fill="white"/>
<path d="M240.589 364.414C240.927 364.368 241.272 364.4 241.596 364.509C241.919 364.617 242.214 364.8 242.455 365.041C242.697 365.283 242.879 365.577 242.988 365.901C243.097 366.225 243.129 366.569 243.082 366.908V377.562C243.082 379.344 242.248 380.179 240.589 380.179H169.784C163.128 380.179 160.655 383.906 160.655 389.861V395.672C160.655 402.036 163.425 405.354 169.784 405.354H223.708C238.925 405.354 246.671 413.51 246.671 428.035V439.376C246.671 452.376 239.626 461.233 223.432 461.233H146.12C145.782 461.281 145.437 461.248 145.114 461.14C144.79 461.031 144.497 460.848 144.256 460.606C144.015 460.365 143.834 460.07 143.726 459.746C143.619 459.422 143.588 459.078 143.637 458.74V448.116C143.637 446.309 144.461 445.484 146.12 445.484H220.268C226.924 445.484 229.386 441.742 229.386 435.802V428.88C229.386 422.531 226.616 419.214 220.406 419.214H166.467C151.25 419.214 143.514 411.022 143.514 396.522V386.43C143.514 373.297 150.559 364.414 166.605 364.414H240.589Z" fill="white"/>
<path d="M277.975 364.414C278.313 364.367 278.657 364.399 278.981 364.508C279.304 364.617 279.598 364.799 279.839 365.041C280.08 365.283 280.261 365.577 280.368 365.901C280.476 366.225 280.507 366.57 280.458 366.908V405.082H351.821V366.908C351.772 366.57 351.803 366.225 351.91 365.901C352.018 365.577 352.199 365.283 352.44 365.041C352.681 364.799 352.974 364.617 353.298 364.508C353.621 364.399 353.966 364.367 354.304 364.414H366.479C368.276 364.414 369.111 365.249 369.111 366.908V458.735C369.111 460.394 368.276 461.228 366.479 461.228H354.304C353.966 461.275 353.621 461.243 353.298 461.134C352.974 461.026 352.681 460.843 352.44 460.601C352.199 460.36 352.018 460.065 351.91 459.741C351.803 459.417 351.772 459.073 351.821 458.735V419.741H280.453V458.735C280.501 459.073 280.471 459.417 280.363 459.741C280.256 460.065 280.074 460.36 279.834 460.601C279.593 460.843 279.299 461.026 278.976 461.134C278.652 461.243 278.308 461.275 277.97 461.228H265.8C265.461 461.275 265.117 461.243 264.794 461.134C264.47 461.026 264.176 460.843 263.936 460.601C263.695 460.36 263.513 460.065 263.406 459.741C263.298 459.417 263.268 459.073 263.316 458.735V366.908C263.268 366.57 263.298 366.225 263.406 365.901C263.513 365.577 263.695 365.283 263.936 365.041C264.176 364.799 264.47 364.617 264.794 364.508C265.117 364.399 265.461 364.367 265.8 364.414H277.975Z" fill="white"/>
<path d="M467.487 364.43C495.278 364.43 505.779 374.373 505.779 400.93V424.718C505.779 451.265 495.278 461.233 467.487 461.233H425.298C397.507 461.233 386.99 451.265 386.99 424.718V400.93C386.99 374.373 397.507 364.43 425.298 364.43H467.487ZM404.142 423.468C404.142 440.211 409.395 445.448 425.846 445.448H466.806C483.395 445.448 488.51 440.211 488.51 423.468V402.174C488.51 385.463 483.39 380.158 466.806 380.158H425.846C409.395 380.158 404.142 385.437 404.142 402.174V423.468Z" fill="white"/>
<path d="M625.598 364.414C627.395 364.414 628.214 365.249 628.214 366.908V377.972C628.214 379.631 627.39 380.455 625.598 380.455H580.245V458.735C580.292 459.073 580.259 459.418 580.15 459.742C580.042 460.066 579.859 460.36 579.618 460.601C579.376 460.843 579.082 461.025 578.758 461.134C578.434 461.243 578.09 461.275 577.751 461.228H565.576C563.779 461.228 562.96 460.394 562.96 458.735V380.455H517.591C517.254 380.503 516.91 380.472 516.587 380.364C516.264 380.256 515.971 380.075 515.73 379.834C515.489 379.593 515.307 379.299 515.199 378.976C515.092 378.653 515.06 378.309 515.108 377.972V366.908C515.061 366.57 515.092 366.226 515.2 365.903C515.308 365.579 515.489 365.285 515.73 365.044C515.97 364.802 516.264 364.62 516.587 364.51C516.91 364.401 517.254 364.368 517.591 364.414H625.598Z" fill="white"/>
<path d="M650.445 366.344H643.41V364.03H660.244V366.344H653.199V380.168H650.429L650.445 366.344Z" fill="white"/>
<path d="M662.318 364.03H666.347L672.926 377.081L679.506 364.03H683.551V380.194H680.765V367.143L674.073 380.194H671.769L665.078 367.143V380.194H662.308L662.318 364.03Z" fill="white"/>
<path d="M397.599 274.753C395.173 274.753 392.845 273.79 391.128 272.076C389.41 270.361 388.444 268.035 388.44 265.609V239.533C388.442 238.329 388.207 237.136 387.749 236.023C387.29 234.91 386.617 233.898 385.767 233.045L355.743 203.032C354.896 202.178 353.887 201.501 352.777 201.038C351.666 200.576 350.475 200.338 349.272 200.339H260.465C259.263 200.34 258.072 200.103 256.96 199.644C255.849 199.184 254.839 198.51 253.989 197.659C253.138 196.809 252.463 195.8 252.003 194.689C251.542 193.578 251.305 192.387 251.305 191.184V84.0586C251.31 81.6319 252.276 79.3061 253.994 77.5916C255.711 75.8772 258.038 74.9142 260.465 74.9143H367.601C370.026 74.917 372.352 75.8809 374.068 77.5949C375.784 79.3089 376.75 81.6332 376.756 84.0586V172.865C376.756 175.291 377.717 177.618 379.428 179.337L409.447 209.35C410.296 210.204 411.306 210.882 412.419 211.344C413.531 211.806 414.724 212.044 415.929 212.043H442.01C444.434 212.045 446.758 213.006 448.475 214.717C450.191 216.427 451.16 218.749 451.17 221.172V265.583C451.164 268.009 450.197 270.334 448.48 272.048C446.763 273.763 444.436 274.726 442.01 274.727L397.599 274.753ZM213.279 274.753C212.9 274.753 212.525 274.678 212.175 274.532C211.825 274.387 211.508 274.173 211.241 273.904C210.974 273.636 210.763 273.317 210.62 272.966C210.476 272.615 210.404 272.239 210.407 271.86V244.11C210.407 243.347 210.71 242.615 211.25 242.075C211.789 241.535 212.521 241.232 213.284 241.232H344.674C345.434 241.232 346.163 241.534 346.701 242.072C347.239 242.61 347.541 243.339 347.541 244.1V271.86C347.542 272.238 347.468 272.613 347.323 272.962C347.179 273.312 346.967 273.629 346.7 273.896C346.432 274.164 346.115 274.376 345.765 274.52C345.416 274.664 345.042 274.738 344.664 274.738L213.279 274.753ZM184.576 241.258C182.54 241.258 180.586 240.449 179.146 239.009C177.706 237.568 176.896 235.615 176.896 233.578V41.3578C176.905 39.3234 177.716 37.3747 179.155 35.9361C180.593 34.4976 182.542 33.6859 184.576 33.6778H202.701C204.738 33.6778 206.692 32.8686 208.132 31.4284C209.572 29.9881 210.381 28.0346 210.381 25.9978V8.18017C210.381 7.1673 210.582 6.16442 210.971 5.22929C211.36 4.29415 211.93 3.44524 212.649 2.73141C213.367 2.01758 214.22 1.45295 215.158 1.07001C216.095 0.687083 217.1 0.493418 218.112 0.500171H409.969C412.006 0.500171 413.959 1.30931 415.4 2.74959C416.84 4.18987 417.649 6.14331 417.649 8.18017V25.9619C417.649 27.9988 418.458 29.9522 419.899 31.3925C421.339 32.8328 423.292 33.6419 425.329 33.6419H443.439C445.478 33.6433 447.434 34.4519 448.879 35.891C450.323 37.3301 451.14 39.2827 451.149 41.3219V163.316C451.149 164.327 450.95 165.329 450.562 166.262C450.174 167.196 449.605 168.044 448.889 168.758C448.173 169.471 447.322 170.036 446.387 170.42C445.452 170.805 444.45 171 443.439 170.996H425.35C423.313 170.996 421.359 170.187 419.919 168.747C418.479 167.306 417.67 165.353 417.67 163.316V43.1549C417.671 41.9529 417.435 40.7625 416.977 39.6516C416.518 38.5407 415.844 37.5311 414.995 36.6804C414.146 35.8298 413.138 35.1549 412.027 34.6941C410.917 34.2334 409.727 33.9959 408.525 33.9952H219.567C217.137 33.9952 214.807 34.9602 213.09 36.678C211.372 38.3958 210.407 40.7256 210.407 43.1549V233.568C210.407 235.605 209.598 237.558 208.157 238.998C206.717 240.439 204.764 241.248 202.727 241.248L184.576 241.258Z" fill="url(#paint0_linear_177_6)"/>
<defs>
<linearGradient id="paint0_linear_177_6" x1="198.838" y1="35.6044" x2="451.15" y2="309.602" gradientUnits="userSpaceOnUse">
<stop stop-color="#C389FF"/>
<stop offset="1" stop-color="#4488FF"/>
</linearGradient>
</defs>
</svg>
