<svg width="41" height="42" viewBox="0 0 41 42" fill="none" xmlns="http://www.w3.org/2000/svg">
<path d="M34.3072 34.4099C32.4747 33.9485 30.6173 33.592 28.7442 33.3419C27.7998 33.1717 26.9144 32.7639 26.1712 32.1569C25.7972 31.7089 25.9472 28.0569 25.9892 27.1169C26.0018 26.9753 26.0415 26.8375 26.1062 26.7109C26.5267 26.0279 26.8944 25.3139 27.2062 24.5749C27.5655 23.4116 27.8366 22.2229 28.0172 21.0189C28.0375 20.8928 28.0866 20.7731 28.1606 20.669C28.2347 20.565 28.3317 20.4794 28.4442 20.4189C28.6799 20.2565 28.8768 20.044 29.0208 19.7966C29.1648 19.5492 29.2523 19.2731 29.2772 18.9879C29.6082 17.3119 30.1312 16.6599 30.0672 15.4109C30.0808 15.0425 29.9592 14.6818 29.7252 14.3969C29.6222 14.2963 29.5481 14.17 29.5105 14.0311C29.4728 13.8922 29.4731 13.7457 29.5112 13.6069C29.8728 12.0089 30.0589 10.3763 30.0662 8.7379C30.1662 4.3489 26.7242 0.0249023 20.5102 0.0249023C14.2002 0.0249023 10.8472 4.3489 10.9432 8.7379C10.9546 10.3755 11.1373 12.0073 11.4882 13.6069C11.5219 13.746 11.52 13.8913 11.4825 14.0294C11.4451 14.1675 11.3735 14.2939 11.2742 14.3969C11.0356 14.6792 10.9134 15.0417 10.9322 15.4109C10.8682 16.6599 11.3912 17.3109 11.7222 18.9879C11.7487 19.2726 11.837 19.5481 11.9809 19.7953C12.1247 20.0424 12.3207 20.2552 12.5552 20.4189C12.6667 20.4806 12.763 20.5665 12.8369 20.6704C12.9108 20.7742 12.9604 20.8933 12.9822 21.0189C13.1628 22.2229 13.4339 23.4116 13.7932 24.5749C14.107 25.3129 14.4747 26.0268 14.8932 26.7109C14.9702 26.8323 15.0108 26.9732 15.0102 27.1169C15.0532 28.0569 15.2022 31.7169 14.8282 32.1569C14.085 32.7639 13.1996 33.1717 12.2552 33.3419C10.3821 33.592 8.52475 33.9485 6.6922 34.4099C5.1762 34.9439 0.792201 36.5989 0.0192009 39.9939C-0.0078694 40.1194 -0.0062976 40.2494 0.0237995 40.3742C0.0538967 40.499 0.111745 40.6154 0.193041 40.7148C0.274336 40.8141 0.376988 40.8939 0.49336 40.9481C0.609732 41.0023 0.73683 41.0296 0.865201 41.0279H40.1472C40.2748 41.0281 40.4008 40.9996 40.5159 40.9445C40.6311 40.8894 40.7323 40.8092 40.8123 40.7098C40.8923 40.6103 40.9489 40.4942 40.9779 40.3699C41.007 40.2457 41.0078 40.1165 40.9802 39.9919C40.2112 36.5989 35.8232 34.9439 34.3072 34.4099Z" fill="white"/>
</svg>
