<svg class="full-body" xmlns="http://www.w3.org/2000/svg" viewBox="0 0 106.67 68.06"><defs><style>

.cls-1{fill:none;stroke:#fff;stroke-miterlimit:10;stroke-width:0.25px;}
.full-body {
	stroke-dasharray: 1168;
	stroke-dashoffset: 1168;
	animation: dash 10s linear forwards infinite;
}

@keyframes dash {
  to {
    stroke-dashoffset: 0;
  },
  
}
</style></defs><title>Asset_2</title><g id="Layer_2" data-name="Layer 2"><g id="Layer_1-2" data-name="Layer 1"><rect class="cls-1" x="54.73" y="0.13" width="8.63" height="6.13" rx="0.73" ry="0.73"/><path class="cls-1" d="M106.54,25.62v-4.8a.74.74,0,0,0-.74-.74h-4.67a.75.75,0,0,0-.75.74v3.29a.6.6,0,0,1-.6.6H94.93a.71.71,0,0,1-.55-.24.73.73,0,0,1-.15-.44V13.31a.71.71,0,0,1,.72-.72h10.85a.73.73,0,0,0,.73-.73V7.06a.73.73,0,0,0-.73-.73h-4.65a.73.73,0,0,1-.72-.73V.93a.73.73,0,0,0-.73-.72H94.84a.72.72,0,0,0-.73.72V11.79a.73.73,0,0,1-.73.72H88.79a.73.73,0,0,0-.72.73v4.63a.73.73,0,0,1-.73.73H82.56a.72.72,0,0,1-.73-.73V13.23a.73.73,0,0,0-.73-.73H76.52a.73.73,0,0,1-.73-.72V7.13a.73.73,0,0,1,.73-.73H87.27A.73.73,0,0,0,88,5.68V.93a.73.73,0,0,0-.73-.72h-11a.72.72,0,0,0-.73.72V5.66a.73.73,0,0,1-.73.72H70.22a.73.73,0,0,0-.73.73v4.68a.73.73,0,0,1-.72.73H55.39a.73.73,0,0,0-.73.72V24a.74.74,0,0,1-.74.73H49.32a.73.73,0,0,1-.73-.72V19.33a.73.73,0,0,0-.72-.73H43.19a.72.72,0,0,1-.72-.73V13.2a.73.73,0,0,1,.72-.73h4.58a.72.72,0,0,0,.72-.72V7a.72.72,0,0,0-.72-.73H43.24a.73.73,0,0,1-.73-.73V.85a.73.73,0,0,0-.73-.72h-11a.73.73,0,0,0-.73.72V5.59a.73.73,0,0,0,.73.73H41.56a.73.73,0,0,1,.73.72v4.64a.73.73,0,0,1-.73.73H36.91a.72.72,0,0,0-.72.73v4.73a.73.73,0,0,1-.73.73H30.88a.73.73,0,0,1-.73-.73V13.18a.73.73,0,0,0-.73-.73H24.7a.73.73,0,0,1-.72-.73V.85a.73.73,0,0,0-.73-.72H18.4a.73.73,0,0,0-.73.72V5.5a.72.72,0,0,1-.73.72H6.16A.73.73,0,0,0,5.43,7v4.67a.73.73,0,0,1-.73.73H.85a.72.72,0,0,0-.72.72v4.86a.73.73,0,0,0,.72.73H4.68a.73.73,0,0,0,.72-.73V13.3a.73.73,0,0,1,.73-.73H16.9a.73.73,0,0,1,.73.73v4.54a.73.73,0,0,1-.73.73H12.32a.73.73,0,0,0-.73.72V24a.72.72,0,0,1-.73.72H.86a.73.73,0,0,0-.73.73V36.88a.29.29,0,0,0,0,.09l0,5.47h0v4.8A.74.74,0,0,0,.87,48H5.54a.74.74,0,0,0,.74-.74V44a.6.6,0,0,1,.6-.6h4.86a.66.66,0,0,1,.69.68l0,10.72a.72.72,0,0,1-.72.72H.87a.73.73,0,0,0-.72.73V61a.73.73,0,0,0,.72.73H5.52a.73.73,0,0,1,.73.73v4.66a.72.72,0,0,0,.73.73h4.85a.73.73,0,0,0,.73-.73V56.27a.72.72,0,0,1,.72-.72h4.59a.73.73,0,0,0,.73-.73V50.18a.73.73,0,0,1,.73-.72h4.78a.73.73,0,0,1,.73.72v4.65a.73.73,0,0,0,.72.73h4.59a.72.72,0,0,1,.72.72v4.65a.73.73,0,0,1-.72.73H19.39a.72.72,0,0,0-.72.72v4.74a.72.72,0,0,0,.72.73h11a.73.73,0,0,0,.73-.73V62.4a.72.72,0,0,1,.72-.72h4.64a.73.73,0,0,0,.72-.73V56.27a.73.73,0,0,1,.73-.73H51.28a.72.72,0,0,0,.72-.72V44.09a.73.73,0,0,1,.73-.73h4.62a.72.72,0,0,1,.72.72v4.65a.73.73,0,0,0,.73.73h4.67a.72.72,0,0,1,.73.72v4.68a.73.73,0,0,1-.73.73H58.9a.73.73,0,0,0-.73.72v4.8a.73.73,0,0,0,.73.73h4.53a.73.73,0,0,1,.73.73v4.64a.72.72,0,0,0,.72.72h11a.73.73,0,0,0,.73-.72V62.47a.73.73,0,0,0-.73-.73H65.1a.72.72,0,0,1-.72-.72V56.38a.73.73,0,0,1,.72-.73h4.65a.73.73,0,0,0,.73-.73V50.18a.73.73,0,0,1,.73-.72h4.58a.73.73,0,0,1,.73.73v4.69a.73.73,0,0,0,.73.73H82a.73.73,0,0,1,.73.73V67.21a.72.72,0,0,0,.72.72h4.86a.73.73,0,0,0,.73-.72V62.56a.72.72,0,0,1,.72-.72h10.79a.73.73,0,0,0,.73-.73V56.44a.73.73,0,0,1,.72-.73h3.85a.73.73,0,0,0,.73-.73V50.13a.73.73,0,0,0-.73-.73H102a.73.73,0,0,0-.73.73v4.63a.72.72,0,0,1-.72.73H89.77a.73.73,0,0,1-.73-.73V50.22a.73.73,0,0,1,.73-.73h4.58a.73.73,0,0,0,.73-.72v-4.7a.72.72,0,0,1,.72-.72h10a.74.74,0,0,0,.73-.74V31.18a.29.29,0,0,0,0-.09l0-5.47Z"/></g></g></svg>