<svg width="24" height="24" viewBox="0 0 24 24" fill="none" xmlns="http://www.w3.org/2000/svg">
<g clip-path="url(#clip0_1071_14)">
<path fill-rule="evenodd" clip-rule="evenodd" d="M2.66667 24H21.3333C22.8061 24 24 22.8061 24 21.3333V2.66667C24 1.19391 22.8061 0 21.3333 0H2.66667C1.19391 0 0 1.19391 0 2.66667V21.3333C0 22.8061 1.19391 24 2.66667 24Z" fill="#0863FF"/>
<path fill-rule="evenodd" clip-rule="evenodd" d="M14.2239 8.66868H18.461V7.45476H14.2239V8.66868ZM15.2277 11.3174C14.9577 11.5921 14.7874 11.9643 14.7178 12.4339H18.0132C17.9784 11.9327 17.8072 11.5541 17.5043 11.2933C17.1976 11.0343 16.8204 10.9053 16.3688 10.9053C15.8796 10.9053 15.4977 11.0427 15.2277 11.3174ZM18.0875 9.6877C18.5983 9.9123 19.0189 10.2687 19.35 10.755C19.652 11.1838 19.8458 11.6812 19.9342 12.2464C19.9859 12.5768 20.0066 13.0557 19.9982 13.6784H14.6708C14.7028 14.4014 14.9549 14.909 15.4365 15.1995C15.7282 15.3805 16.0791 15.4715 16.4911 15.4715C16.9248 15.4715 17.2794 15.361 17.5513 15.1411C17.7009 15.0213 17.8326 14.8561 17.9455 14.6445H19.8975C19.8458 15.0715 19.6087 15.5067 19.1891 15.9485C18.5344 16.6492 17.6172 17 16.4384 17C15.4648 17 14.6059 16.7049 13.8636 16.1128C13.1176 15.5216 12.747 14.5582 12.747 13.2255C12.747 11.9754 13.0828 11.0167 13.7536 10.3494C14.4262 9.68399 15.2964 9.34896 16.3679 9.34896C17.0047 9.34896 17.5776 9.46218 18.0875 9.6877ZM5.97084 12.4599V15.0613H8.3716C8.80058 15.0613 9.13548 15.0037 9.37349 14.8896C9.80717 14.6761 10.0235 14.2715 10.0235 13.6719C10.0235 13.1633 9.81469 12.8153 9.39418 12.6251C9.159 12.5193 8.8288 12.4636 8.40547 12.4599H5.97084ZM5.97084 8.69374V10.8459H8.37537C8.8034 10.8459 9.15241 10.7652 9.42146 10.6037C9.68863 10.4422 9.82316 10.1564 9.82316 9.74803C9.82316 9.29234 9.6463 8.99258 9.29258 8.84594C8.9859 8.74478 8.59644 8.69374 8.12325 8.69374H5.97084ZM11.3406 8.03944C11.6425 8.45429 11.794 8.94988 11.794 9.52807C11.794 10.123 11.6425 10.6028 11.3368 10.9647C11.1656 11.1671 10.9144 11.3527 10.5823 11.5197C11.0866 11.7016 11.4666 11.9884 11.7253 12.381C11.9812 12.7726 12.1101 13.2497 12.1101 13.8102C12.1101 14.3884 11.9633 14.9072 11.6689 15.3657C11.4826 15.6691 11.2493 15.9253 10.969 16.1332C10.6538 16.3717 10.2822 16.5341 9.85232 16.6232C9.4224 16.7114 8.95768 16.7541 8.45533 16.7541H4V7H8.778C9.98402 7.01763 10.8373 7.36381 11.3406 8.03944Z" fill="white"/>
</g>
<defs>
<clipPath id="clip0_1071_14">
<rect width="24" height="24" fill="white"/>
</clipPath>
</defs>
</svg>
