<svg width="24" height="24" viewBox="0 0 24 24" fill="none" xmlns="http://www.w3.org/2000/svg">
<g clip-path="url(#clip0_1071_25)">
<path d="M3 0H21C22.65 0 24 1.35 24 3V21C24 22.65 22.65 24 21 24H3C1.35 24 0 22.65 0 21V3C0 1.35 1.35 0 3 0Z" fill="url(#paint0_linear_1071_25)"/>
<path d="M15.9 3.75H8.1C5.7 3.75 3.75 5.775 3.75 8.175V15.825C3.75 18.225 5.7 20.25 8.1 20.25H15.9C18.3 20.25 20.25 18.225 20.25 15.825V8.175C20.25 5.775 18.3 3.75 15.9 3.75ZM18.75 15.675C18.75 17.325 17.4 18.75 15.75 18.75H8.25C6.6 18.75 5.25 17.325 5.25 15.675V8.25C5.25 6.6 6.525 5.25 8.25 5.25H15.75C17.4 5.25 18.75 6.675 18.75 8.325V15.675Z" fill="white"/>
<path d="M11.9996 7.80003C9.67464 7.72503 7.72464 9.60003 7.64964 11.925C7.57464 14.25 9.44964 16.2 11.7746 16.275C14.0996 16.35 16.0496 14.475 16.1246 12.15V12.075C16.1996 9.67503 14.3246 7.80003 11.9996 7.80003ZM11.9996 14.7C10.4996 14.7 9.22464 13.5 9.22464 12C9.22464 10.5 10.4246 9.22503 11.9246 9.22503C13.4246 9.22503 14.6996 10.425 14.6996 11.925V12C14.6996 13.5 13.4996 14.7 11.9996 14.7Z" fill="white"/>
<path d="M16.3502 8.4749C16.8473 8.4749 17.2502 8.03838 17.2502 7.4999C17.2502 6.96142 16.8473 6.5249 16.3502 6.5249C15.8531 6.5249 15.4502 6.96142 15.4502 7.4999C15.4502 8.03838 15.8531 8.4749 16.3502 8.4749Z" fill="white"/>
</g>
<defs>
<linearGradient id="paint0_linear_1071_25" x1="4.35263" y1="25.2456" x2="19.6474" y2="-1.2456" gradientUnits="userSpaceOnUse">
<stop stop-color="#FEC053"/>
<stop offset="0.327" stop-color="#F2203E"/>
<stop offset="0.648" stop-color="#B729A8"/>
<stop offset="1" stop-color="#5342D6"/>
</linearGradient>
<clipPath id="clip0_1071_25">
<rect width="24" height="24" fill="white"/>
</clipPath>
</defs>
</svg>
