<svg width="24" height="24" viewBox="0 0 24 24" fill="none" xmlns="http://www.w3.org/2000/svg">
<g clip-path="url(#clip0_1071_18)">
<path d="M24 22.5C24 23.328 23.328 24 22.5 24H1.5C0.672 24 0 23.328 0 22.5V1.5C0 0.672 0.672 0 1.5 0H22.5C23.328 0 24 0.672 24 1.5V22.5Z" fill="#007BB5"/>
<path d="M8.25 8.25H5.25V18.75H8.25V8.25Z" fill="white"/>
<path d="M15.3743 8.25C13.281 8.25 12.921 9.0135 12.75 9.75V8.25H9.75V18.75H12.75V12.75C12.75 11.7773 13.2773 11.25 14.25 11.25C15.1995 11.25 15.75 11.766 15.75 12.75V18.75H18.75V13.5C18.75 10.5 18.3593 8.25 15.3743 8.25Z" fill="white"/>
<path d="M6.75 7.5C7.57843 7.5 8.25 6.82843 8.25 6C8.25 5.17157 7.57843 4.5 6.75 4.5C5.92157 4.5 5.25 5.17157 5.25 6C5.25 6.82843 5.92157 7.5 6.75 7.5Z" fill="white"/>
</g>
<defs>
<clipPath id="clip0_1071_18">
<rect width="24" height="24" fill="white"/>
</clipPath>
</defs>
</svg>
