<svg width="24" height="24" viewBox="0 0 24 24" fill="none" xmlns="http://www.w3.org/2000/svg">
<g clip-path="url(#clip0_1084_24)">
<path d="M5.448 0C4.92 0.024 4.224 0.072 3.912 0.144C3.432 0.24 2.976 0.384 2.616 0.576C2.16 0.792 1.776 1.08 1.44 1.416C1.08 1.776 0.792 2.16 0.576 2.616C0.384 2.976 0.24 3.432 0.144 3.912C0.072 4.224 0.024 4.92 0.024 5.448C0 5.664 0 5.952 0 6.096V17.904V18.552C0.024 19.08 0.072 19.776 0.144 20.088C0.24 20.568 0.384 21.024 0.576 21.384C0.792 21.84 1.08 22.224 1.416 22.56C1.776 22.92 2.16 23.208 2.616 23.424C2.976 23.616 3.432 23.76 3.912 23.856C4.224 23.928 4.92 23.976 5.448 23.976C5.664 24 5.952 24 6.096 24H17.904H18.552C19.08 23.976 19.776 23.928 20.088 23.856C20.568 23.76 21.024 23.616 21.384 23.424C21.84 23.208 22.224 22.92 22.56 22.584C22.92 22.224 23.208 21.84 23.424 21.384C23.616 21.024 23.76 20.568 23.856 20.088C23.928 19.776 23.976 19.08 23.976 18.552C24 18.336 24 18.048 24 17.904V5.448C23.976 4.92 23.928 4.224 23.856 3.912C23.76 3.432 23.616 2.976 23.424 2.616C23.208 2.16 22.92 1.776 22.584 1.44C22.224 1.08 21.84 0.792 21.384 0.576C21.024 0.384 20.568 0.24 20.088 0.144C19.776 0.072 19.08 0.024 18.552 0.024C18.336 -2.79397e-09 18.048 0 17.904 0H5.448Z" fill="url(#paint0_linear_1084_24)"/>
<path d="M11.2703 11.27C10.8671 11.6732 10.8671 12.3268 11.2703 12.7297C11.6732 13.1329 12.3271 13.1329 12.73 12.7297C13.1332 12.3265 13.1332 11.6729 12.73 11.27C12.3268 10.8671 11.6732 10.8671 11.2703 11.27ZM12 4C7.58161 4 4 7.58161 4 12C4 16.4184 7.58161 20 12 20C16.4184 20 20 16.4184 20 12C20 7.58161 16.4184 4 12 4ZM16.069 8.77581L13.941 13.4323C13.838 13.6574 13.6574 13.838 13.4323 13.941L8.77613 16.069C8.23903 16.3145 7.68548 15.761 7.93097 15.2239L10.0594 10.5674C10.1623 10.3422 10.3429 10.1616 10.5681 10.0587L15.2242 7.93065C15.7613 7.68548 16.3145 8.23871 16.069 8.77581Z" fill="white"/>
</g>
<defs>
<linearGradient id="paint0_linear_1084_24" x1="1.92" y1="3.07201" x2="24" y2="27.048" gradientUnits="userSpaceOnUse">
<stop stop-color="#C389FF"/>
<stop offset="1" stop-color="#4488FF"/>
</linearGradient>
<clipPath id="clip0_1084_24">
<rect width="24" height="24" fill="white"/>
</clipPath>
</defs>
</svg>
