<svg width="24" height="24" viewBox="0 0 24 24" fill="none" xmlns="http://www.w3.org/2000/svg">
<g clip-path="url(#clip0_1075_11)">
<path d="M5.448 0C4.92 0.024 4.224 0.072 3.912 0.144C3.432 0.24 2.976 0.384 2.616 0.576C2.16 0.792 1.776 1.08 1.44 1.416C1.08 1.776 0.792 2.16 0.576 2.616C0.384 2.976 0.24 3.432 0.144 3.912C0.072 4.224 0.024 4.92 0.024 5.448C0 5.664 0 5.952 0 6.096V17.904V18.552C0.024 19.08 0.072 19.776 0.144 20.088C0.24 20.568 0.384 21.024 0.576 21.384C0.792 21.84 1.08 22.224 1.416 22.56C1.776 22.92 2.16 23.208 2.616 23.424C2.976 23.616 3.432 23.76 3.912 23.856C4.224 23.928 4.92 23.976 5.448 23.976C5.664 24 5.952 24 6.096 24H17.904H18.552C19.08 23.976 19.776 23.928 20.088 23.856C20.568 23.76 21.024 23.616 21.384 23.424C21.84 23.208 22.224 22.92 22.56 22.584C22.92 22.224 23.208 21.84 23.424 21.384C23.616 21.024 23.76 20.568 23.856 20.088C23.928 19.776 23.976 19.08 23.976 18.552C24 18.336 24 18.048 24 17.904V5.448C23.976 4.92 23.928 4.224 23.856 3.912C23.76 3.432 23.616 2.976 23.424 2.616C23.208 2.16 22.92 1.776 22.584 1.44C22.224 1.08 21.84 0.792 21.384 0.576C21.024 0.384 20.568 0.24 20.088 0.144C19.776 0.072 19.08 0.024 18.552 0.024C18.336 -2.79397e-09 18.048 0 17.904 0H5.448Z" fill="url(#paint0_linear_1075_11)"/>
<path d="M9.15312 4.76945C8.9125 4.1882 8.27812 3.87883 7.67188 4.04445L4.92188 4.79445C4.37813 4.94445 4 5.4382 4 6.0007C4 13.732 10.2688 20.0007 18 20.0007C18.5625 20.0007 19.0563 19.6226 19.2063 19.0788L19.9563 16.3288C20.1219 15.7226 19.8125 15.0882 19.2312 14.8476L16.2312 13.5976C15.7219 13.3851 15.1313 13.532 14.7844 13.9601L13.5219 15.5007C11.3219 14.4601 9.54063 12.6788 8.5 10.4788L10.0406 9.21945C10.4688 8.86945 10.6156 8.28195 10.4031 7.77258L9.15312 4.77258V4.76945Z" fill="white"/>
</g>
<defs>
<linearGradient id="paint0_linear_1075_11" x1="12" y1="24" x2="12" y2="4.57764e-05" gradientUnits="userSpaceOnUse">
<stop stop-color="#25CF43"/>
<stop offset="1" stop-color="#61FD7D"/>
</linearGradient>
<clipPath id="clip0_1075_11">
<rect width="24" height="24" fill="white"/>
</clipPath>
</defs>
</svg>
