<svg width="24" height="24" viewBox="0 0 24 24" fill="none" xmlns="http://www.w3.org/2000/svg">
<g clip-path="url(#clip0_1071_35)">
<path d="M19.8 0H4.2C1.8804 0 0 1.8804 0 4.2V19.8C0 22.1196 1.8804 24 4.2 24H19.8C22.1196 24 24 22.1196 24 19.8V4.2C24 1.8804 22.1196 0 19.8 0Z" fill="#FFFC40"/>
<path d="M11.9996 20.25C13.7733 20.25 14.2233 19.125 15.2733 18.75C16.0608 18.4688 17.1821 18.6075 17.6958 18.6975C17.7718 18.7108 17.8499 18.6939 17.9137 18.6505C17.9774 18.6071 18.0217 18.5405 18.0371 18.465L18.1983 17.7488C18.2137 17.6848 18.2494 17.6275 18.3002 17.5856C18.3509 17.5436 18.4139 17.5193 18.4796 17.5162C20.2983 17.43 20.6133 16.9125 20.6358 16.605C20.6372 16.5421 20.6187 16.4804 20.583 16.4286C20.5474 16.3768 20.4963 16.3375 20.4371 16.3162C16.4133 14.8575 16.6158 13.1363 17.0096 12.3225C17.0788 12.1873 17.1798 12.0709 17.3039 11.9834C17.428 11.8959 17.5715 11.8398 17.7221 11.82C19.3008 11.5763 19.1246 9.88875 18.1758 10.3987C17.1483 10.95 16.6008 10.5487 16.6008 10.5487V8.12625C16.6008 5.55 14.5421 3.75 11.9996 3.75C9.4571 3.75 7.39835 5.535 7.39835 8.11125V10.545C7.39835 10.545 6.85085 10.9462 5.82335 10.395C4.8746 9.885 4.69835 11.5725 6.2771 11.8162C6.42768 11.836 6.5712 11.8921 6.69532 11.9796C6.81943 12.0672 6.92042 12.1835 6.9896 12.3187C7.38335 13.1325 7.58585 14.8538 3.5621 16.3125C3.50288 16.3337 3.45183 16.373 3.41616 16.4248C3.3805 16.4766 3.36202 16.5384 3.36335 16.6012C3.38585 16.9088 3.70085 17.4263 5.5196 17.5125C5.58534 17.5156 5.6483 17.5399 5.69903 17.5818C5.74975 17.6237 5.78548 17.681 5.80085 17.745L5.9621 18.4613C5.97754 18.5368 6.02182 18.6033 6.08554 18.6467C6.14926 18.6902 6.2274 18.707 6.30335 18.6937C6.8171 18.6037 7.93835 18.465 8.72585 18.7463C9.77585 19.125 10.2258 20.25 11.9996 20.25Z" fill="white"/>
<path d="M12.0001 20.46C11.1065 20.4654 10.2429 20.1379 9.57759 19.5413C9.29982 19.3041 8.98584 19.1129 8.64759 18.975C7.89759 18.705 6.77259 18.855 6.34134 18.93C6.20899 18.9526 6.07304 18.9235 5.96145 18.8489C5.84985 18.7743 5.77108 18.6597 5.74134 18.5288L5.58009 17.8125C5.57672 17.796 5.56784 17.781 5.55491 17.7701C5.54198 17.7592 5.52574 17.753 5.50884 17.7525C3.61134 17.6625 3.17259 17.0925 3.13884 16.6275C3.13603 16.5176 3.16832 16.4096 3.23103 16.3193C3.29374 16.2289 3.38361 16.1609 3.48759 16.125C5.32884 15.4575 6.48759 14.625 6.86259 13.7663C6.9483 13.5538 6.98762 13.3254 6.97792 13.0965C6.96822 12.8675 6.90972 12.6433 6.80634 12.4388C6.75322 12.3366 6.67589 12.249 6.5811 12.1837C6.48631 12.1183 6.37696 12.0771 6.26259 12.0638C5.96379 12.0424 5.67788 11.9336 5.44049 11.7509C5.2031 11.5682 5.02472 11.3197 4.92759 11.0363C4.87733 10.8952 4.87048 10.7423 4.90791 10.5972C4.94533 10.4522 5.02533 10.3217 5.13759 10.2225C5.25779 10.1414 5.39947 10.0981 5.54447 10.0981C5.68946 10.0981 5.83114 10.1414 5.95134 10.2225C6.13096 10.3448 6.33498 10.4265 6.54929 10.4621C6.76361 10.4977 6.9831 10.4863 7.19259 10.4288V8.12629C7.19259 5.50129 9.26634 3.54004 12.0188 3.54004C14.7713 3.54004 16.8451 5.50879 16.8451 8.12629V10.425C17.055 10.4806 17.2744 10.4906 17.4884 10.4543C17.7025 10.4181 17.9064 10.3365 18.0863 10.215C18.2065 10.1339 18.3482 10.0906 18.4932 10.0906C18.6382 10.0906 18.7799 10.1339 18.9001 10.215C19.0124 10.3142 19.0923 10.4447 19.1298 10.5897C19.1672 10.7348 19.1603 10.8877 19.1101 11.0288C19.013 11.3122 18.8346 11.5607 18.5972 11.7434C18.3598 11.9261 18.0739 12.0349 17.7751 12.0563C17.6607 12.0696 17.5514 12.1108 17.4566 12.1762C17.3618 12.2415 17.2845 12.3291 17.2313 12.4313C17.128 12.6358 17.0695 12.86 17.0598 13.089C17.0501 13.3179 17.0894 13.5463 17.1751 13.7588C17.5501 14.6325 18.6751 15.45 20.5501 16.1175C20.656 16.1539 20.7472 16.2237 20.8101 16.3163C20.873 16.4089 20.9041 16.5195 20.8988 16.6313C20.8651 17.0925 20.4263 17.6625 18.5288 17.7563C18.5119 17.7568 18.4957 17.763 18.4828 17.7739C18.4698 17.7848 18.461 17.7997 18.4576 17.8163L18.2963 18.5325C18.2666 18.6635 18.1878 18.778 18.0762 18.8526C17.9646 18.9273 17.8287 18.9563 17.6963 18.9338C17.2538 18.8588 16.1363 18.7088 15.3901 18.9788C15.0518 19.1167 14.7379 19.3078 14.4601 19.545C13.7846 20.1491 12.9061 20.4758 12.0001 20.46ZM7.55634 18.375C7.97868 18.3665 8.39948 18.4286 8.80134 18.5588C9.18154 18.7138 9.53567 18.9263 9.85134 19.1888C10.4398 19.7224 11.2057 20.018 12.0001 20.018C12.7945 20.018 13.5604 19.7224 14.1488 19.1888C14.4645 18.9263 14.8186 18.7138 15.1988 18.5588C16.0274 18.3411 16.8953 18.3193 17.7338 18.495C17.7532 18.4983 17.7731 18.4939 17.7892 18.4827C17.8054 18.4714 17.8164 18.4543 17.8201 18.435L18.0001 17.7113C18.0256 17.5986 18.0875 17.4975 18.1764 17.4236C18.2652 17.3497 18.3759 17.3071 18.4913 17.3025C20.2501 17.22 20.4188 16.7438 20.4301 16.5975C20.4301 16.5975 20.4301 16.5525 20.3776 16.5413C18.3863 15.8175 17.1676 14.94 16.7588 13.9163C16.6478 13.6455 16.5964 13.3539 16.6081 13.0614C16.6197 12.769 16.6941 12.4824 16.8263 12.2213C16.9133 12.0613 17.0367 11.924 17.1865 11.8204C17.3364 11.7168 17.5084 11.6499 17.6888 11.625C17.9008 11.6166 18.1056 11.546 18.2776 11.422C18.4497 11.2979 18.5814 11.126 18.6563 10.9275C18.6782 10.8708 18.6845 10.8093 18.6747 10.7493C18.6648 10.6893 18.639 10.633 18.6001 10.5863C18.5363 10.5338 18.4201 10.5488 18.2813 10.6238C17.1563 11.235 16.4963 10.7775 16.4663 10.7588L16.3763 10.6913V8.14129C16.3763 5.78254 14.5013 4.01629 12.0001 4.01629C9.49884 4.01629 7.62384 5.79379 7.62384 8.14129V10.6913L7.53384 10.7588C7.50384 10.7775 6.85509 11.235 5.71884 10.6238C5.58009 10.5488 5.46384 10.5338 5.40009 10.5863C5.36116 10.633 5.33542 10.6893 5.32553 10.7493C5.31564 10.8093 5.32196 10.8708 5.34384 10.9275C5.4188 11.126 5.55052 11.2979 5.72257 11.422C5.89463 11.546 6.0994 11.6166 6.31134 11.625C6.49797 11.6502 6.67569 11.7204 6.82919 11.8295C6.9827 11.9386 7.10741 12.0833 7.19259 12.2513C7.32478 12.5124 7.39923 12.799 7.41088 13.0914C7.42252 13.3839 7.3711 13.6755 7.26009 13.9463C6.85134 14.955 5.63259 15.8213 3.64134 16.5713C3.60759 16.5713 3.58509 16.6088 3.58884 16.6275C3.58884 16.7738 3.76884 17.25 5.52759 17.3325C5.64304 17.3371 5.75376 17.3797 5.84257 17.4536C5.93139 17.5275 5.99335 17.6286 6.01884 17.7413L6.18009 18.4575C6.18374 18.4768 6.19483 18.4939 6.21095 18.5052C6.22708 18.5164 6.24697 18.5208 6.26634 18.5175C6.69154 18.4337 7.12309 18.386 7.55634 18.375Z" fill="#231F20"/>
</g>
<defs>
<clipPath id="clip0_1071_35">
<rect width="24" height="24" fill="white"/>
</clipPath>
</defs>
</svg>
