<svg width="24" height="24" viewBox="0 0 24 24" fill="none" xmlns="http://www.w3.org/2000/svg">
<g clip-path="url(#clip0_1071_40)">
<path d="M20.034 0.0161133H3.96508C1.75473 0.0161133 -0.0371094 1.80795 -0.0371094 4.0183V20.0872C-0.0371094 22.2976 1.75473 24.0894 3.96508 24.0894H20.034C22.2444 24.0894 24.0362 22.2976 24.0362 20.0872V4.0183C24.0362 1.80795 22.2444 0.0161133 20.034 0.0161133Z" fill="black"/>
<path d="M19.5035 10.0829V6.87276C15.3072 6.69557 15.1722 2.88238 15.1722 2.52407V2.49707H11.9289V14.9998C11.9285 15.54 11.7578 16.0664 11.441 16.5041C11.1242 16.9417 10.6774 17.2683 10.1643 17.4374C9.65118 17.6065 9.09779 17.6095 8.58287 17.4459C8.06795 17.2823 7.61773 16.9605 7.29626 16.5263C6.97478 16.0921 6.79843 15.5675 6.79229 15.0273C6.78614 14.487 6.95052 13.9586 7.26203 13.5172C7.57355 13.0758 8.01633 12.7438 8.52739 12.5686C9.03846 12.3933 9.59177 12.3837 10.1086 12.5411V9.2302C9.86014 9.19832 9.60988 9.18235 9.35937 9.18238C8.2088 9.18238 7.08407 9.52357 6.12741 10.1628C5.17075 10.802 4.42512 11.7106 3.98482 12.7735C3.54451 13.8365 3.42931 15.0062 3.65377 16.1347C3.87824 17.2631 4.43229 18.2997 5.24586 19.1133C6.05944 19.9268 7.096 20.4809 8.22446 20.7054C9.35292 20.9298 10.5226 20.8146 11.5856 20.3743C12.6486 19.934 13.5571 19.1884 14.1963 18.2317C14.8356 17.2751 15.1767 16.1503 15.1767 14.9998C15.1767 14.9182 15.1767 14.8372 15.1711 14.7568V8.6002C16.6646 9.96651 19.5035 10.0829 19.5035 10.0829Z" fill="#00F6EF"/>
<path d="M20.4586 10.8752V7.66328C16.2618 7.4861 16.1273 3.67291 16.1273 3.3146V3.2876H12.8839V15.7903C12.8837 16.3306 12.7131 16.8571 12.3964 17.2948C12.0796 17.7325 11.6329 18.0592 11.1198 18.2284C10.6067 18.3976 10.0532 18.4006 9.53828 18.2371C9.02332 18.0736 8.57304 17.7518 8.2515 17.3176C7.92997 16.8834 7.75356 16.3588 7.74737 15.8186C7.74118 15.2783 7.90553 14.7499 8.21703 14.3084C8.52853 13.8669 8.97132 13.535 9.4824 13.3597C9.99349 13.1844 10.5468 13.1748 11.0637 13.3322V10.0207C10.8146 9.98953 10.5638 9.97431 10.3128 9.97516C9.16217 9.97549 8.03752 10.317 7.08103 10.9565C6.12454 11.5961 5.37917 12.5049 4.9392 13.568C4.49922 14.6312 4.38439 15.8009 4.60922 16.9293C4.83406 18.0577 5.38847 19.0941 6.20234 19.9074C7.0162 20.7208 8.05297 21.2745 9.18153 21.4985C10.3101 21.7226 11.4798 21.607 12.5426 21.1663C13.6055 20.7256 14.5138 19.9796 15.1526 19.0227C15.7915 18.0658 16.1323 16.9409 16.1318 15.7903C16.1318 15.7087 16.1318 15.6277 16.1262 15.5473V9.39072C17.6196 10.757 20.4586 10.8752 20.4586 10.8752Z" fill="white"/>
<path d="M15.252 3.2876C15.4083 4.13922 15.8651 5.47066 17.1965 6.24972C16.179 5.06454 16.1278 3.5351 16.1278 3.3146V3.2876H15.252Z" fill="#FF004F"/>
<path d="M20.4581 10.8752V7.66328C20.1369 7.65151 19.8171 7.61389 19.5019 7.55078V10.0792C19.5019 10.0792 16.6629 9.96278 15.1706 8.59647V14.7513C15.174 14.8318 15.1762 14.9128 15.1762 14.9943C15.1761 16.0468 14.8904 17.0796 14.3497 17.9826C13.809 18.8856 13.0334 19.6249 12.1057 20.122C11.1779 20.619 10.1327 20.855 9.08138 20.8049C8.03007 20.7548 7.01204 20.4205 6.13574 19.8375C6.94163 20.6697 7.97769 21.2424 9.11113 21.4821C10.2446 21.7218 11.4238 21.6175 12.4976 21.1828C13.5714 20.748 14.491 20.0024 15.1384 19.0417C15.7858 18.081 16.1315 16.9488 16.1314 15.7903C16.1314 15.7087 16.1314 15.6277 16.1257 15.5473V9.39072C17.6192 10.757 20.4581 10.8752 20.4581 10.8752Z" fill="#FF004F"/>
<path d="M10.1079 12.5362C9.48858 12.3473 8.8208 12.3991 8.23805 12.6813C7.65531 12.9635 7.20054 13.4553 6.96468 14.0582C6.72882 14.6612 6.72924 15.331 6.96585 15.9337C7.20247 16.5364 7.65785 17.0276 8.24095 17.309C7.9223 16.8737 7.74868 16.3493 7.74469 15.8098C7.7407 15.2704 7.90654 14.7434 8.21872 14.3035C8.5309 13.8636 8.97358 13.533 9.48407 13.3587C9.99455 13.1844 10.547 13.1751 11.063 13.3321V10.0207C10.8139 9.9895 10.5631 9.97428 10.3121 9.97513C10.2429 9.97513 10.1748 9.97513 10.1062 9.97907L10.1079 12.5362Z" fill="#FF004F"/>
</g>
<defs>
<clipPath id="clip0_1071_40">
<rect width="24" height="24" fill="white"/>
</clipPath>
</defs>
</svg>
