<svg width="24" height="24" viewBox="0 0 24 24" fill="none" xmlns="http://www.w3.org/2000/svg">
<g clip-path="url(#clip0_1071_52)">
<rect width="24" height="24" rx="2" fill="white"/>
<path d="M12.1684 10.6142L7.73355 4.40869H5.36816L10.8619 12.0951L11.5534 13.0621L16.2557 19.6469H18.6211L12.857 11.5811L12.1684 10.6142Z" fill="black"/>
<path d="M21.9925 0H2.0075C0.898749 0 0 0.898749 0 2.0075V21.9925C0 23.1013 0.898749 24 2.0075 24H21.9925C23.1013 24 24 23.1013 24 21.9925V2.0075C24 0.898749 23.1013 0 21.9925 0ZM15.5295 20.7273L10.7703 13.9494L4.81248 20.7273H3.27273L10.0875 12.9767L3.27273 3.27273H8.47053L12.9761 9.68941L18.6214 3.27273H20.161L13.6625 10.6643L20.7273 20.7273H15.5295Z" fill="black"/>
</g>
<defs>
<clipPath id="clip0_1071_52">
<rect width="24" height="24" fill="white"/>
</clipPath>
</defs>
</svg>
