<svg width="24" height="24" viewBox="0 0 24 24" fill="none" xmlns="http://www.w3.org/2000/svg">
<g clip-path="url(#clip0_1071_10)">
<path d="M5.448 0C4.92 0.024 4.224 0.072 3.912 0.144C3.432 0.24 2.976 0.384 2.616 0.576C2.16 0.792 1.776 1.08 1.44 1.416C1.08 1.776 0.792 2.16 0.576 2.616C0.384 2.976 0.24 3.432 0.144 3.912C0.072 4.224 0.024 4.92 0.024 5.448C0 5.664 0 5.952 0 6.096V17.904V18.552C0.024 19.08 0.072 19.776 0.144 20.088C0.24 20.568 0.384 21.024 0.576 21.384C0.792 21.84 1.08 22.224 1.416 22.56C1.776 22.92 2.16 23.208 2.616 23.424C2.976 23.616 3.432 23.76 3.912 23.856C4.224 23.928 4.92 23.976 5.448 23.976C5.664 24 5.952 24 6.096 24H17.904H18.552C19.08 23.976 19.776 23.928 20.088 23.856C20.568 23.76 21.024 23.616 21.384 23.424C21.84 23.208 22.224 22.92 22.56 22.584C22.92 22.224 23.208 21.84 23.424 21.384C23.616 21.024 23.76 20.568 23.856 20.088C23.928 19.776 23.976 19.08 23.976 18.552C24 18.336 24 18.048 24 17.904V5.448C23.976 4.92 23.928 4.224 23.856 3.912C23.76 3.432 23.616 2.976 23.424 2.616C23.208 2.16 22.92 1.776 22.584 1.44C22.224 1.08 21.84 0.792 21.384 0.576C21.024 0.384 20.568 0.24 20.088 0.144C19.776 0.072 19.08 0.024 18.552 0.024C18.336 -2.79397e-09 18.048 0 17.904 0H5.448Z" fill="url(#paint0_linear_1071_10)"/>
<path fill-rule="evenodd" clip-rule="evenodd" d="M16.16 13.5795C15.9463 13.4725 14.8953 12.9555 14.6993 12.8842C14.5034 12.8129 14.361 12.7772 14.2185 12.9912C14.0759 13.2051 13.6663 13.6864 13.5416 13.8291C13.4169 13.9717 13.2922 13.9895 13.0785 13.8825C12.8647 13.7756 12.1759 13.5499 11.3595 12.8219C10.724 12.2553 10.295 11.5554 10.1703 11.3415C10.0456 11.1276 10.157 11.0119 10.264 10.9054C10.3602 10.8097 10.4778 10.6558 10.5847 10.531C10.6915 10.4063 10.7272 10.3171 10.7984 10.1745C10.8697 10.0319 10.834 9.90708 10.7806 9.80011C10.7272 9.69314 10.2997 8.64136 10.1215 8.21349C9.94805 7.79682 9.7718 7.85321 9.64059 7.84664C9.51605 7.84046 9.37341 7.83914 9.23091 7.83914C9.08836 7.83914 8.85684 7.89263 8.66086 8.10652C8.46492 8.32046 7.91273 8.83749 7.91273 9.88927C7.91273 10.9411 8.67867 11.9572 8.78555 12.0998C8.89247 12.2425 10.2929 14.4009 12.4372 15.3265C12.9472 15.5467 13.3454 15.6781 13.6558 15.7767C14.1679 15.9393 14.6339 15.9164 15.0022 15.8613C15.4129 15.8 16.2669 15.3443 16.4451 14.8452C16.6231 14.3461 16.6231 13.9182 16.5697 13.8291C16.5163 13.7399 16.3738 13.6864 16.16 13.5795ZM12.2597 18.9032H12.2568C10.9809 18.9027 9.72947 18.5601 8.63775 17.9124L8.37811 17.7583L5.68687 18.4641L6.40523 15.841L6.23611 15.5721C5.52436 14.4403 5.14847 13.1322 5.14898 11.7891C5.15053 7.86985 8.34037 4.68122 12.2625 4.68122C14.1618 4.68197 15.9471 5.42236 17.2896 6.76594C18.6321 8.10952 19.371 9.8955 19.3703 11.7948C19.3687 15.7144 16.1789 18.9032 12.2597 18.9032ZM18.3113 5.74496C16.6962 4.12843 14.5482 3.23775 12.2596 3.23682C7.54425 3.23682 3.70645 7.07311 3.70458 11.7886C3.70397 13.2959 4.09786 14.7673 4.8465 16.0641L3.63281 20.4959L8.16797 19.3067C9.41752 19.988 10.8244 20.347 12.2562 20.3476H12.2597C16.9747 20.3476 20.8128 16.5108 20.8147 11.7954C20.8156 9.51019 19.9266 7.36149 18.3113 5.74496Z" fill="white"/>
</g>
<defs>
<linearGradient id="paint0_linear_1071_10" x1="12" y1="24" x2="12" y2="4.57764e-05" gradientUnits="userSpaceOnUse">
<stop stop-color="#25CF43"/>
<stop offset="1" stop-color="#61FD7D"/>
</linearGradient>
<clipPath id="clip0_1071_10">
<rect width="24" height="24" fill="white"/>
</clipPath>
</defs>
</svg>
