<svg width="24" height="24" viewBox="0 0 24 24" fill="none" xmlns="http://www.w3.org/2000/svg">
<path d="M22.3306 6.79159C22.0826 5.85789 21.3519 5.12247 20.4242 4.87286C18.7427 4.41943 12 4.41943 12 4.41943C12 4.41943 5.25722 4.41943 3.57562 4.8729C2.64792 5.12251 1.91728 5.85789 1.66931 6.79164C1.21875 8.48406 1.21875 12.0153 1.21875 12.0153C1.21875 12.0153 1.21875 15.5466 1.66931 17.239C1.91728 18.1727 2.64792 18.8775 3.57562 19.1271C5.25722 19.5805 12 19.5805 12 19.5805C12 19.5805 18.7427 19.5805 20.4242 19.1271C21.3519 18.8774 22.0826 18.1727 22.3306 17.2389C22.7812 15.5465 22.7812 12.0152 22.7812 12.0152C22.7812 12.0152 22.7812 8.48406 22.3306 6.79159Z" fill="#FF0000"/>
<path d="M9.79492 15.2213V8.80908L15.4305 12.0152L9.79492 15.2213Z" fill="white"/>
</svg>
